<svg xmlns="http://www.w3.org/2000/svg" width="211" height="53" viewBox="0 0 211 53" fill="none"><path fill-rule="evenodd" clip-rule="evenodd" d="M15.978 52.07C21.0466 47.7096 25.4209 42.6019 28.95 36.923C27.66 31.815 25.157 27.618 22.628 23.623C18.9801 31.9749 13.294 39.2774 6.091 44.8611C8.88783 47.8821 12.2459 50.33 15.978 52.0681V52.07Z" fill="url(#paint0_linear_1_261)"></path><path fill-rule="evenodd" clip-rule="evenodd" d="M10.567 48.8611C16.7138 43.9178 21.8322 37.8178 25.633 30.906C24.4683 28.5484 23.4631 26.1152 22.624 23.623C18.9772 31.9744 13.2925 39.2769 6.091 44.8611C7.45433 46.3317 8.95294 47.671 10.567 48.8611Z" fill="url(#paint1_linear_1_261)"></path><path fill-rule="evenodd" clip-rule="evenodd" d="M41.426 9.05402C43.3855 10.7198 44.9925 12.7603 46.1525 15.0556C47.3126 17.351 48.0024 19.855 48.1815 22.4207C48.3605 24.9863 48.0252 27.5618 47.1952 29.9961C46.3652 32.4303 45.0572 34.6742 43.348 36.596C43.879 39.259 47.448 43.088 51.869 44.864C54.7028 41.7692 56.8835 38.1348 58.2807 34.178C59.6779 30.2213 60.2631 26.0234 60.001 21.8354C59.739 17.6474 58.6352 13.5552 56.7557 9.80344C54.8761 6.0517 52.2595 2.71745 49.062 0L41.426 9.05402Z" fill="url(#paint2_linear_1_261)"></path><path fill-rule="evenodd" clip-rule="evenodd" d="M54.146 23.763C54.1514 30.1499 51.7392 36.302 47.394 40.983C48.8147 42.3564 50.3089 43.6517 51.87 44.863C54.7038 41.7682 56.8845 38.1338 58.2817 34.1771C59.679 30.2203 60.264 26.0225 60.002 21.8344C59.74 17.6464 58.6362 13.5542 56.7567 9.80249C54.8771 6.05075 52.2604 2.71647 49.063 -0.000976562L45.245 4.51303C48.0355 6.88432 50.2768 9.83413 51.8136 13.158C53.3504 16.4818 54.146 20.1001 54.145 23.762L54.146 23.763Z" fill="url(#paint3_linear_1_261)"></path><path fill-rule="evenodd" clip-rule="evenodd" d="M10.769 29.939C10.0731 27.9305 9.72241 25.8186 9.73199 23.693C9.72939 20.9008 10.3366 18.1416 11.5111 15.6085C12.6856 13.0753 14.3992 10.8291 16.532 9.02701L8.89501 0C7.4068 1.25629 6.04345 2.65345 4.824 4.172C-2.56 13.25 -0.688014 25.691 10.766 29.939H10.769Z" fill="url(#paint4_linear_1_261)"></path><path fill-rule="evenodd" clip-rule="evenodd" d="M10.769 29.939C10.073 27.9305 9.72242 25.8187 9.732 23.6931C9.7294 20.9008 10.3366 18.1417 11.5111 15.6085C12.6856 13.0753 14.3992 10.8292 16.532 9.02704L12.718 4.49805C5.15699 10.921 -0.0519958 24.904 10.771 29.936L10.769 29.939Z" fill="url(#paint5_linear_1_261)"></path><path fill-rule="evenodd" clip-rule="evenodd" d="M4.65004 19.1203C1.56504 15.3023 1.13504 9.58727 4.82704 4.17627C-2.55696 13.2543 -0.684943 25.6953 10.7691 29.9433C5.86306 27.6673 4.24504 23.5433 4.65004 19.1203Z" fill="url(#paint6_linear_1_261)"></path><path fill-rule="evenodd" clip-rule="evenodd" d="M9.758 22.7432C7.76413 22.039 5.99873 20.8069 4.65 19.1782C4.25 23.6032 5.86399 27.7252 10.769 30.0012C10.073 27.9927 9.7224 25.8808 9.732 23.7552C9.732 23.4262 9.732 23.0982 9.757 22.7442L9.758 22.7432Z" fill="url(#paint7_linear_1_261)"></path><path fill-rule="evenodd" clip-rule="evenodd" d="M44.435 35.3062C44.1005 35.7667 43.7374 36.2059 43.348 36.6212C45.8683 39.6814 48.7268 42.4467 51.869 44.8641C52.248 44.4641 52.602 44.0302 52.982 43.5742L52.906 43.5242C49.786 41.1078 46.9449 38.3514 44.435 35.3062Z" fill="url(#paint8_linear_1_261)"></path><path fill-rule="evenodd" clip-rule="evenodd" d="M35.333 23.6231H22.664C26.4616 34.6525 33.1285 44.4714 41.979 52.0701C45.7111 50.332 49.0692 47.8842 51.866 44.8631C44.6626 39.2786 38.9764 31.975 35.329 23.6221L35.333 23.6231Z" fill="url(#paint9_linear_1_261)"></path><path fill-rule="evenodd" clip-rule="evenodd" d="M28.96 23.6231C32.7555 33.5229 39.118 42.2339 47.394 48.8611C49.0081 47.671 50.5067 46.3318 51.87 44.8611C44.6666 39.2766 38.9805 31.9731 35.333 23.6201L28.96 23.6231Z" fill="url(#paint10_linear_1_261)"></path><path d="M70.54 12.5H74.25L75.965 31.33H76.035L77.855 12.5H82.055L83.875 31.33H83.945L85.66 12.5H88.985L86.5 37H81.705L79.955 20.48H79.885L78.135 37H73.025L70.54 12.5ZM90.9324 12.5H94.7824V22.475H98.9124V12.5H102.762V37H98.9124V25.975H94.7824V37H90.9324V12.5ZM105.63 12.5H116.13V16H109.48V22.475H114.765V25.975H109.48V33.5H116.13V37H105.63V12.5ZM121.355 16H117.33V12.5H129.23V16H125.205V37H121.355V16ZM136.099 37.35C134.232 37.35 132.82 36.825 131.864 35.775C130.907 34.7017 130.429 33.1733 130.429 31.19V29.79H134.069V31.47C134.069 33.0567 134.734 33.85 136.064 33.85C136.717 33.85 137.207 33.6633 137.534 33.29C137.884 32.8933 138.059 32.2633 138.059 31.4C138.059 30.3733 137.825 29.475 137.359 28.705C136.892 27.9117 136.029 26.9667 134.769 25.87C133.182 24.47 132.074 23.21 131.444 22.09C130.814 20.9467 130.499 19.6633 130.499 18.24C130.499 16.3033 130.989 14.81 131.969 13.76C132.949 12.6867 134.372 12.15 136.239 12.15C138.082 12.15 139.47 12.6867 140.404 13.76C141.36 14.81 141.839 16.3267 141.839 18.31V19.325H138.199V18.065C138.199 17.225 138.035 16.6183 137.709 16.245C137.382 15.8483 136.904 15.65 136.274 15.65C134.99 15.65 134.349 16.4317 134.349 17.995C134.349 18.8817 134.582 19.71 135.049 20.48C135.539 21.25 136.414 22.1833 137.674 23.28C139.284 24.68 140.392 25.9517 140.999 27.095C141.605 28.2383 141.909 29.58 141.909 31.12C141.909 33.1267 141.407 34.6667 140.404 35.74C139.424 36.8133 137.989 37.35 136.099 37.35ZM147.126 16H143.101V12.5H155.001V16H150.976V37H147.126V16ZM162.293 37.35C160.403 37.35 158.957 36.8133 157.953 35.74C156.95 34.6667 156.448 33.15 156.448 31.19V18.31C156.448 16.35 156.95 14.8333 157.953 13.76C158.957 12.6867 160.403 12.15 162.293 12.15C164.183 12.15 165.63 12.6867 166.633 13.76C167.637 14.8333 168.138 16.35 168.138 18.31V31.19C168.138 33.15 167.637 34.6667 166.633 35.74C165.63 36.8133 164.183 37.35 162.293 37.35ZM162.293 33.85C163.623 33.85 164.288 33.045 164.288 31.435V18.065C164.288 16.455 163.623 15.65 162.293 15.65C160.963 15.65 160.298 16.455 160.298 18.065V31.435C160.298 33.045 160.963 33.85 162.293 33.85ZM170.742 12.5H175.572L179.317 27.165H179.387V12.5H182.817V37H178.862L174.242 19.115H174.172V37H170.742V12.5ZM185.679 12.5H196.179V16H189.529V22.475H194.814V25.975H189.529V33.5H196.179V37H185.679V12.5ZM197.692 33.57L204.832 16H198.042V12.5H208.962V15.93L201.822 33.5H208.962V37H197.692V33.57Z" fill="white"></path><defs><linearGradient id="paint0_linear_1_261" x1="2.75359" y1="54.5165" x2="36.2307" y2="32.906" gradientUnits="userSpaceOnUse"><stop stop-color="white"></stop><stop offset="0.34" stop-color="#738C79"></stop><stop offset="0.67" stop-color="#738C79"></stop><stop offset="1" stop-color="#111312"></stop></linearGradient><linearGradient id="paint1_linear_1_261" x1="6.30596" y1="46.7663" x2="40.2382" y2="26.4378" gradientUnits="userSpaceOnUse"><stop stop-color="#CCE5D2"></stop><stop offset="0.34" stop-color="#738C79"></stop><stop offset="0.67" stop-color="#738C79"></stop><stop offset="1" stop-color="#111312"></stop></linearGradient><linearGradient id="paint2_linear_1_261" x1="50.744" y1="-3.09562" x2="50.744" y2="52.9844" gradientUnits="userSpaceOnUse"><stop stop-color="#ECBE13"></stop><stop offset="0.474" stop-color="#EC9C13"></stop><stop offset="1" stop-color="#EC6A13"></stop></linearGradient><linearGradient id="paint3_linear_1_261" x1="52.654" y1="6.05567" x2="52.654" y2="56.6623" gradientUnits="userSpaceOnUse"><stop stop-color="#F8C300"></stop><stop offset="0.437" stop-color="#F8A008"></stop><stop offset="1" stop-color="#F5680A"></stop></linearGradient><linearGradient id="paint4_linear_1_261" x1="8.47926" y1="-7.69432" x2="8.47926" y2="31.1964" gradientUnits="userSpaceOnUse"><stop stop-color="#ECBE13"></stop><stop offset="0.553" stop-color="#EC9C13"></stop><stop offset="1" stop-color="#EC6A13"></stop></linearGradient><linearGradient id="paint5_linear_1_261" x1="10.5664" y1="7.04214" x2="5.34729" y2="33.9908" gradientUnits="userSpaceOnUse"><stop stop-color="#F8C300"></stop><stop offset="0.458" stop-color="#F8A008"></stop><stop offset="1" stop-color="#F5680A"></stop></linearGradient><linearGradient id="paint6_linear_1_261" x1="4.06907" y1="2.39835" x2="15.0054" y2="36.2247" gradientUnits="userSpaceOnUse"><stop stop-color="#ECBE13"></stop><stop offset="0.493" stop-color="#EC9C13"></stop><stop offset="1" stop-color="#EC6A13"></stop></linearGradient><linearGradient id="paint7_linear_1_261" x1="6.64868" y1="-5.85537" x2="9.80305" y2="35.5323" gradientUnits="userSpaceOnUse"><stop stop-color="#ECBE13"></stop><stop offset="0.493" stop-color="#EC9C13"></stop><stop offset="1" stop-color="#EF6C14"></stop></linearGradient><linearGradient id="paint8_linear_1_261" x1="48.165" y1="-11.3942" x2="48.165" y2="52.4914" gradientUnits="userSpaceOnUse"><stop stop-color="#ECBE13"></stop><stop offset="0.493" stop-color="#ECAB13"></stop><stop offset="1" stop-color="#EC8E13"></stop></linearGradient><linearGradient id="paint9_linear_1_261" x1="24.5913" y1="8.71532" x2="44.6216" y2="56.462" gradientUnits="userSpaceOnUse"><stop stop-color="white"></stop><stop offset="0.326" stop-color="#738C79"></stop><stop offset="0.653" stop-color="#738C79"></stop><stop offset="1" stop-color="#111312"></stop></linearGradient><linearGradient id="paint10_linear_1_261" x1="33.6566" y1="18.7486" x2="54.793" y2="55.4042" gradientUnits="userSpaceOnUse"><stop stop-color="#C8DCCD"></stop><stop offset="0.41" stop-color="#738C79"></stop><stop offset="0.741" stop-color="#738C79"></stop><stop offset="1" stop-color="#111312"></stop></linearGradient></defs></svg>